<svg xmlns="http://www.w3.org/2000/svg" width="128" height="128" viewBox="0 0 128 128" fill="none" shape-rendering="geometricPrecision"><polygon points="0,0 110,0 128,18 128,128 0,128" fill="#101420"/><polyline points="0,0 110,0 128,18 128,128 0,128 0,0" fill="none" stroke="#38E1FF" stroke-width="2"/><polyline points="12,12 44,12" fill="none" stroke="#38E1FF" stroke-width="1" opacity="0.706"/><polyline points="12,116 76,116" fill="none" stroke="#38E1FF" stroke-width="2" opacity="0.863"/><polyline points="112,3 125,16" fill="none" stroke="#38E1FF" stroke-width="1" opacity="0.824"/><polygon points="22,81 91,29 105,48 36,101" fill="#2A3242" stroke="#EEF2F6" stroke-width="3"/><ellipse cx="79" cy="64" rx="23" ry="23" fill="none" stroke="#38E1FF" stroke-width="3"/><polyline points="79,34 79,94 49,64 109,64" fill="none" stroke="#EEF2F6" stroke-width="2"/><ellipse cx="79" cy="64" rx="6" ry="6" fill="#101420" stroke="#EEF2F6" stroke-width="2"/><polyline points="32,79 38,87" fill="none" stroke="#EEF2F6" stroke-width="2"/><polyline points="44,70 50,78" fill="none" stroke="#EEF2F6" stroke-width="2"/><polyline points="56,61 62,69" fill="none" stroke="#EEF2F6" stroke-width="2"/><polyline points="68,52 74,60" fill="none" stroke="#EEF2F6" stroke-width="2"/><polyline points="80,43 86,51" fill="none" stroke="#EEF2F6" stroke-width="2"/></svg>
